<svg xmlns="http://www.w3.org/2000/svg" xmlns:xlink="http://www.w3.org/1999/xlink" preserveAspectRatio="xMidYMid meet" version="1.0" viewBox="597.5 496.6 1257.6 1459.2" zoomAndPan="magnify" style="fill: rgb(0, 0, 0);" original_string_length="6927"><g id="__id1_svyubdh8wk" style="fill: rgb(0, 0, 0);"><path d="M 1139.753906 736.890625 L 1139.753906 1037.746094 C 1139.753906 1063.308594 1178.476562 1084.023438 1226.238281 1084.023438 C 1274 1084.023438 1312.734375 1063.308594 1312.734375 1037.746094 L 1312.734375 736.890625 C 1294.496094 759.039062 1265.488281 770.519531 1226.238281 770.519531 C 1186.988281 770.519531 1157.984375 759.039062 1139.753906 736.890625" style="fill: inherit;"/><path d="M 614.328125 1531.277344 L 614.328125 1713.039062 C 614.328125 1847.160156 888.28125 1955.867188 1226.25 1955.867188 C 1564.203125 1955.867188 1838.183594 1847.160156 1838.183594 1713.039062 L 1838.183594 1531.277344 C 1732.527344 1626.9375 1501.152344 1691.90625 1226.25 1691.90625 C 951.355469 1691.90625 719.957031 1626.9375 614.328125 1531.277344" style="fill: inherit;"/><path d="M 1352.960938 899.003906 L 1350.183594 932.644531 C 1618.765625 954.800781 1821.292969 1049.773438 1821.292969 1153.507812 L 1821.292969 1182.925781 C 1800.320312 1183.835938 1780.234375 1188.511719 1758.710938 1197.378906 C 1714.351562 1215.691406 1694.820312 1239.328125 1677.582031 1260.164062 C 1659.679688 1281.855469 1644.210938 1300.566406 1600.125 1312.265625 C 1585.75 1316.070312 1572.992188 1317.941406 1561.121094 1317.941406 C 1540.078125 1317.941406 1524.808594 1312.105469 1507.097656 1305.359375 C 1487.363281 1297.859375 1465.011719 1289.347656 1433.136719 1289.347656 C 1424.703125 1289.347656 1415.871094 1289.9375 1406.859375 1291.109375 C 1359.914062 1297.222656 1335.261719 1314.992188 1313.515625 1330.660156 C 1290.890625 1346.980469 1271.347656 1361.0625 1226.125 1361.0625 C 1180.929688 1361.0625 1161.402344 1346.960938 1138.789062 1330.660156 C 1117.039062 1314.980469 1092.378906 1297.1875 1045.4375 1291.085938 C 1036.367188 1289.902344 1027.5 1289.289062 1019.128906 1289.289062 C 987.246094 1289.289062 964.886719 1297.824219 945.148438 1305.335938 C 927.445312 1312.09375 912.160156 1317.921875 891.128906 1317.921875 C 879.261719 1317.921875 866.5 1316.0625 852.140625 1312.242188 C 808.074219 1300.523438 792.632812 1281.824219 774.75 1260.15625 C 757.511719 1239.292969 737.996094 1215.65625 693.632812 1197.34375 C 672.164062 1188.492188 652.132812 1183.824219 631.183594 1182.867188 L 631.183594 1153.507812 C 631.183594 1049.773438 833.707031 954.800781 1102.289062 932.644531 L 1099.507812 899.003906 C 803.902344 923.414062 597.457031 1028.070312 597.457031 1153.507812 L 597.457031 1199.757812 C 597.457031 1204.367188 599.332031 1208.757812 602.675781 1211.957031 C 605.988281 1215.132812 610.367188 1216.828125 615.09375 1216.625 C 617.707031 1216.488281 620.390625 1216.429688 623.109375 1216.429688 C 642.707031 1216.429688 660.496094 1220.164062 680.78125 1228.515625 C 717.328125 1243.628906 732.585938 1262.066406 748.726562 1281.628906 C 768.507812 1305.585938 788.964844 1330.363281 843.46875 1344.851562 C 860.699219 1349.441406 876.292969 1351.660156 891.128906 1351.660156 C 918.371094 1351.660156 938.089844 1344.132812 957.171875 1336.859375 C 975.828125 1329.75 993.46875 1323.042969 1019.128906 1323.042969 C 1026.160156 1323.042969 1033.328125 1323.53125 1041.078125 1324.53125 C 1079.566406 1329.539062 1098.738281 1343.382812 1119.046875 1358.019531 C 1144.101562 1376.089844 1170.027344 1394.800781 1226.167969 1394.800781 C 1282.253906 1394.800781 1308.175781 1376.113281 1333.238281 1358.042969 C 1353.550781 1343.402344 1372.726562 1329.582031 1411.21875 1324.570312 C 1418.796875 1323.582031 1426.160156 1323.082031 1433.136719 1323.082031 C 1458.800781 1323.082031 1476.417969 1329.800781 1495.082031 1336.902344 C 1514.15625 1344.171875 1533.878906 1351.671875 1561.121094 1351.671875 C 1575.941406 1351.671875 1591.542969 1349.460938 1608.796875 1344.890625 C 1663.320312 1330.382812 1683.78125 1305.632812 1703.585938 1281.6875 C 1719.746094 1262.132812 1734.996094 1243.675781 1771.582031 1228.5625 C 1791.851562 1220.195312 1809.664062 1216.476562 1829.273438 1216.476562 C 1832.039062 1216.476562 1834.722656 1216.554688 1837.386719 1216.65625 C 1841.972656 1216.898438 1846.480469 1215.199219 1849.800781 1212.027344 C 1853.148438 1208.828125 1855.039062 1204.421875 1855.039062 1199.824219 L 1855.039062 1153.507812 C 1855.039062 1028.070312 1648.582031 923.414062 1352.960938 899.003906" style="fill: inherit;"/><path d="M 1829.285156 1263.746094 C 1818.097656 1263.746094 1802.390625 1264.941406 1779.96875 1274.203125 C 1748.449219 1287.191406 1736.160156 1302.113281 1720.527344 1320.992188 C 1700.589844 1345.097656 1675.769531 1375.117188 1614.433594 1391.417969 C 1595.316406 1396.507812 1577.871094 1398.96875 1561.125 1398.96875 C 1529.832031 1398.96875 1507.21875 1390.335938 1487.269531 1382.738281 C 1469.113281 1375.828125 1454.769531 1370.378906 1433.140625 1370.378906 C 1427.152344 1370.378906 1420.734375 1370.796875 1414.046875 1371.679688 C 1381.0625 1375.957031 1365.644531 1387.097656 1346.113281 1401.179688 C 1320.808594 1419.398438 1289.34375 1442.085938 1226.136719 1442.085938 C 1162.925781 1442.070312 1131.488281 1419.378906 1106.203125 1401.167969 C 1086.652344 1387.066406 1071.210938 1375.929688 1038.230469 1371.636719 C 1031.5625 1370.769531 1025.121094 1370.316406 1019.132812 1370.316406 C 997.503906 1370.316406 983.171875 1375.796875 965 1382.707031 C 945.046875 1390.328125 922.417969 1398.925781 891.132812 1398.925781 C 874.363281 1398.925781 856.929688 1396.46875 837.816406 1391.386719 C 776.496094 1375.085938 751.699219 1345.078125 731.777344 1320.933594 C 716.1875 1302.066406 703.882812 1287.160156 672.382812 1274.132812 C 649.964844 1264.898438 634.277344 1263.703125 623.113281 1263.703125 C 620.730469 1263.703125 618.359375 1263.769531 616.070312 1263.882812 L 614.328125 1263.929688 L 614.328125 1475.117188 C 688.832031 1576.269531 938.847656 1653.046875 1226.25 1653.046875 C 1513.660156 1653.046875 1763.664062 1576.269531 1838.183594 1475.117188 L 1838.183594 1264.007812 L 1836.425781 1263.929688 C 1834.078125 1263.816406 1831.6875 1263.746094 1829.285156 1263.746094" style="fill: inherit;"/><path d="M 1226.246094 634.644531 C 1226.246094 634.644531 1249.957031 674.132812 1249.957031 703.675781 C 1249.957031 733.242188 1239.324219 741.667969 1226.246094 741.667969 C 1213.15625 741.667969 1202.535156 733.242188 1202.535156 703.675781 C 1202.535156 674.132812 1226.246094 634.644531 1226.246094 634.644531 Z M 1226.246094 751.960938 C 1276.28125 751.960938 1316.851562 731.886719 1316.851562 661.378906 C 1316.851562 590.847656 1226.246094 496.628906 1226.246094 496.628906 C 1226.246094 496.628906 1135.640625 590.847656 1135.640625 661.378906 C 1135.640625 731.886719 1176.210938 751.960938 1226.246094 751.960938" style="fill: inherit;"/></g></svg>